<?xml version="1.0" encoding="UTF-8"?><svg id="Layer_2" xmlns="http://www.w3.org/2000/svg" viewBox="0 0 148.14 178.35"><defs><style>.cls-1,.cls-2,.cls-3,.cls-4,.cls-5,.cls-6,.cls-7,.cls-8,.cls-9,.cls-10,.cls-11{fill-rule:evenodd;}.cls-1,.cls-12{fill:#581200;}.cls-2{fill:#5f4732;}.cls-3{fill:#89613e;}.cls-4{fill:#20201e;}.cls-5{fill:#c4c4c4;}.cls-6{fill:#df9f75;}.cls-7{fill:#c10016;}.cls-8{fill:#d8d8d8;}.cls-9{fill:#8f1610;}.cls-10{fill:#fff;}.cls-11{fill:#edcbab;}.cls-12{font-family:OpenSans-Bold, 'Open Sans';font-size:26.21px;font-weight:700;}</style></defs><g id="OBJECTS"><g><text class="cls-12" transform="translate(0 170.67)"><tspan x="0" y="0">CHEF LOGO</tspan></text><g><path class="cls-7" d="M43.27,48l83.61-8.01c9.06-.87,15,6.04,13.21,15.36l-10.26,53.23c-1.79,9.31-10.67,17.64-19.73,18.51l-83.61,8.01c-9.06,.87-15-6.04-13.2-15.35l10.26-53.23c1.8-9.31,10.67-17.64,19.73-18.51Z"/><g><path class="cls-1" d="M72.01,89.35l-.04-.03c-1.27-1.07-2.84-1.61-4.61-1.55-1.91,.06-4.06,.81-6.35,2.31-1.94,1.28-3.96,3.1-6,5.51-6.33,7.5-12.7,5.43-16.62,2.77,.3,1.22,.76,2.32,1.36,3.32,2.58,1.16,5.49,1.78,8.49,1.92,4.33,.21,8.83-.57,12.75-2.12,3.86-1.53,7.14-3.79,9.08-6.58,1.11-1.59,1.78-3.35,1.87-5.24,0-.11,.03-.21,.06-.31h0Zm19.3-48.2c0-.83,.67-1.5,1.5-1.5s1.5,.67,1.5,1.5v10.34c0,.83-.67,1.5-1.5,1.5s-1.5-.67-1.5-1.5v-10.34h0Zm-13.11-2.23c0-.83,.67-1.5,1.5-1.5s1.5,.67,1.5,1.5v10.34c0,.83-.67,1.5-1.5,1.5s-1.5-.67-1.5-1.5v-10.34h0Zm-12.89,.58c0-.83,.67-1.5,1.5-1.5s1.5,.67,1.5,1.5v10.34c0,.83-.67,1.5-1.5,1.5s-1.5-.67-1.5-1.5v-10.34h0Zm-12.16,4.59c0-.83,.67-1.5,1.5-1.5s1.5,.67,1.5,1.5v10.34c0,.83-.67,1.5-1.5,1.5s-1.5-.67-1.5-1.5v-10.34h0Zm-13.41,2.22c-8.81-1.55-20.74-7.67-16.53-18.08l.47,1.17c2.36,8.35,5.12,11.07,13.76,12.18,.82,.11,1.7,.2,2.63,.28,1.23,.09,2.15,1.16,2.05,2.39-.09,1.23-1.16,2.15-2.39,2.06h0Zm67.27-11.27c.77-.05,1.58-.15,2.4-.3,6.34-1.17,13.66-5.4,14.58-11.99,.74-5.24-.31-.34,.95-5.57,3.17,13.11-5.57,20.66-18.01,22.31-1.23-.02-2.21-1.04-2.19-2.27,.02-1.23,1.04-2.21,2.27-2.19h0Zm9.28,36.76c1.6-.65,3.19-.88,4.67-.73,1.27,.12,2.46,.52,3.5,1.15,1.05,.64,1.95,1.51,2.62,2.58,1.04,1.65,1.56,3.77,1.33,6.21-.6,6.17-6.8,8.77-9.67,9.64-.05,.24-.11,.48-.17,.71,.37,9.01-4.83,14.88-11.82,17.84-3.02,2.51-6.5,4.69-10.31,6.43,2.06-.45,4.16-.73,6.24-.75,4.35-.04,8.57,1.05,12.05,4.05,7.66,6.6,10.29,9.71,10.3,9.72,.71,.84,.6,2.09-.24,2.8-.04,.04-.09,.07-.14,.11h0s-15.26,10.91-26.61,4.88c-2.61-1.39-4.74-2.73-6.46-3.95-1.57-1.11-2.82-2.14-3.79-3.04-.67,.99-1.51,1.9-2.48,2.66-1.19,.92-2.59,1.63-4.14,2-2.42,.58-5.14,.32-7.85-1.23-1.09-.63-1.98-1.35-2.67-2.15-.69,.88-1.52,1.86-2.53,2.94-1.39,1.48-3.13,3.14-5.31,4.95-9.87,8.22-26.97,.68-27.02,.65-.06-.03-.11-.05-.17-.09-.96-.53-1.32-1.74-.79-2.71,0-.01,1.92-3.56,8.09-11.6,2.93-3.81,7.05-5.75,11.54-6.53,1.4-.24,2.83-.37,4.27-.41-4.52-1.49-8.61-3.61-12.09-6.24-.17-.13-.34-.26-.51-.4-.36-.12-.71-.25-1.05-.39-6.49-2.62-11.24-7.96-11.06-16.41-3.04-1.02-8.57-3.65-9.14-9.47-.24-2.44,.28-4.56,1.33-6.21,.67-1.07,1.57-1.94,2.62-2.58,1.04-.63,2.23-1.03,3.5-1.15,1.53-.15,3.18,.1,4.84,.8,1.62-3.38,3.86-6.53,6.62-9.36l-.24-12.43c-2.46,.06-7.79-.32-13.1-1.95-5.83-1.79-11.71-5.07-14.22-10.91-.67-1.56-1.09-3.3-1.19-5.23-.09-1.61-.07-3.13,.05-4.56,.52-6.2,2.87-11.15,6.84-14.66,3.91-3.46,9.34-5.46,16.05-5.82,2-.11,4.09-.07,6.27,.11,7.17,.6,14.33,2.07,20.94,3.58,.34-.17,.72-.24,1.12-.19,3.29,.4,8.99-2.38,15.51-5.57,11.88-5.81,26.29-12.85,37.67-6.22,6.93,4.03,10.95,9.48,12.51,15.18,1.11,4.06,.96,8.22-.29,12.09-1.24,3.85-3.57,7.39-6.82,10.23-4.69,4.1-11.31,6.74-19.36,6.65l.14,13.28c.47,.32,.94,.66,1.39,1,3.94,2.98,7.09,6.6,9.23,10.69h0Zm-1.36,17.54c-.04,.18-.08,.36-.12,.54-1.11,1.33-7.81,8.74-14.25,1.56-2.12-2.36-4.25-4.19-6.35-5.51-3.01-1.9-5.97-2.78-8.68-2.76-2.85,.02-5.4,1.02-7.47,2.87-.66,.59-1.27,1.27-1.82,2.02-.52-.68-1.09-1.28-1.71-1.8-2.04-1.72-4.53-2.58-7.31-2.49-2.63,.09-5.49,1.05-8.41,2.97-2.27,1.49-4.58,3.57-6.86,6.26-5.29,6.26-10.7,2.81-13.1,.65-.33-1.37-.53-2.78-.6-4.22-.01-.29-.02-.66-.02-1.12,0-8.2,4.27-15.86,11.16-21.61,7.03-5.86,16.76-9.74,27.52-10.25,.72-.03,1.52-.05,2.39-.05,8.75,0,16.7,2.3,22.9,6.2,.22,.24,.51,.43,.83,.54,.55,.37,1.08,.74,1.6,1.14,6.36,4.81,10.4,11.5,10.76,19.07,.01,.29,.02,.66,.02,1.11,0,1.23-.1,2.44-.28,3.64-.2,.36-.28,.79-.22,1.23h0Zm4.45-3.14c2.15-.92,4.78-2.62,5.06-5.57,.15-1.51-.14-2.78-.73-3.71-.35-.55-.79-.99-1.31-1.3-.53-.32-1.14-.52-1.81-.59-.83-.08-1.75,.05-2.7,.42,.86,2.45,1.38,5.03,1.51,7.72,.02,.51,.04,.94,.04,1.3,0,.58-.02,1.15-.05,1.73h0Zm-83.72-6.62c-1.05-.46-2.06-.62-2.98-.54-.67,.07-1.28,.27-1.81,.59-.52,.31-.96,.75-1.31,1.3-.59,.94-.88,2.2-.73,3.71,.3,3.15,3.29,4.89,5.51,5.75-.02-.25-.04-.51-.05-.76-.02-.51-.04-.95-.04-1.3,0-3,.49-5.93,1.41-8.75h0Zm76.05,20.53c.18-.14,.4-.21,.62-.21,.8-1.19,1.41-2.52,1.8-3.99-3.92,2.86-10.22,5.21-16.52-1.83-1.85-2.07-3.71-3.65-5.5-4.79-2.35-1.48-4.57-2.17-6.55-2.15-1.84,.01-3.49,.66-4.84,1.86l-.02,.02c-.12,2.4,.78,4.65,2.36,6.61,1.57,1.95,3.8,3.62,6.38,4.9,2.61,1.29,5.58,2.19,8.58,2.56,4.95,.61,10-.2,13.69-2.98h0Zm-4.31,4.31c-3.03,.88-6.36,1.05-9.64,.65-3.24-.4-6.44-1.36-9.26-2.76-2.85-1.41-5.32-3.27-7.08-5.45-1.25-1.55-2.13-3.26-2.54-5.08-.37,1.27-.56,2.46-.58,3.57,0,.18,0,.35,0,.52,.09,3.09,1.47,5.57,3.63,7.39,2.64,2.23,6.43,3.59,10.51,4.02,4.15,.44,8.56-.07,12.36-1.59,.91-.36,1.78-.78,2.6-1.27h0Zm-65.08,.27c1.87,.5,3.84,.79,5.83,.89,4.62,.22,9.41-.61,13.57-2.25,4.21-1.66,7.81-4.17,9.98-7.29,.93-1.33,1.6-2.78,1.95-4.32,1.63,5.31-.15,9.5-3.61,12.35-2.88,2.38-6.88,3.91-11.1,4.47-4.25,.57-8.69,.16-12.4-1.34-1.56-.63-3-1.47-4.23-2.52h0Zm52.02-40.98c-2.07-.75-4.15-1.06-6.05-.9-1.96,.17-3.74,.84-5.17,2.05-.84,.71-.94,1.97-.23,2.81,.71,.84,1.97,.94,2.81,.23,.76-.65,1.78-1.02,2.94-1.12,1.34-.12,2.83,.11,4.35,.66,1.03,.37,2.18-.16,2.55-1.19,.37-1.03-.16-2.18-1.19-2.55h0Zm-29.23,.96c-1.64-.88-3.51-1.1-5.32-.8-1.87,.3-3.68,1.16-5.11,2.37-.84,.71-.94,1.97-.23,2.81,.71,.84,1.97,.94,2.81,.23,.89-.76,2.02-1.29,3.17-1.48,.98-.16,1.96-.06,2.79,.38,.97,.52,2.18,.16,2.7-.81,.52-.97,.16-2.18-.81-2.7h0Zm23.05,13.28c.66-1.08,1.61-1.64,2.62-1.81,.64-.11,1.32-.07,1.99,.08,.69,.16,1.37,.44,2,.83,1.25,.77,2.2,1.9,2.41,3.14,.18,1.09,1.21,1.82,2.29,1.64,1.09-.18,1.82-1.21,1.64-2.29-.41-2.45-2.08-4.56-4.25-5.89-.98-.6-2.07-1.05-3.21-1.31-1.16-.26-2.36-.32-3.52-.13-2.1,.35-4.04,1.49-5.37,3.65-.58,.94-.28,2.17,.66,2.75,.94,.58,2.17,.28,2.75-.66h0Zm-19.66-2.09c-1.33-2.17-3.27-3.3-5.37-3.65-1.16-.19-2.36-.14-3.52,.13-1.14,.26-2.24,.71-3.21,1.31-2.17,1.33-3.84,3.44-4.25,5.89-.18,1.09,.55,2.11,1.64,2.29,1.09,.18,2.11-.55,2.29-1.64,.21-1.24,1.16-2.38,2.41-3.14,.63-.39,1.31-.67,2-.83,.67-.15,1.35-.19,1.99-.08,1.01,.17,1.96,.73,2.62,1.81,.58,.94,1.81,1.23,2.75,.66,.94-.58,1.23-1.81,.66-2.75h0Zm43.48,49.77c.82-.04,1.52,.6,1.56,1.43,.04,.82-.6,1.52-1.43,1.56-4.82,.22-7.63-.94-10.49-2.13-3-1.24-6.08-2.52-12.12-1.87-.02,.28-.05,.56-.09,.84,.03,.03,.06,.05,.08,.08,.94,.98,2.35,2.25,4.41,3.7,1.61,1.14,3.59,2.39,6.02,3.68,7.03,3.74,16.48-.98,20.5-3.38-1.46-1.48-4.06-3.97-8.29-7.61-2.65-2.28-5.96-3.11-9.41-3.08-3.95,.04-8.11,1.19-11.78,2.64,5.65-.34,8.78,.96,11.85,2.23,2.55,1.06,5.05,2.1,9.21,1.91h0Zm-65.21,9.62c-.82,.14-1.59-.4-1.73-1.22-.14-.82,.4-1.59,1.22-1.73,4.21-.75,6.73-2.36,9.31-4,3.29-2.1,6.67-4.25,13.24-5.05,.02-.1,.05-.19,.08-.29-4.25-.9-9.25-1.47-13.75-.68-3.58,.62-6.83,2.12-9.06,5.02-3.38,4.41-5.42,7.38-6.56,9.13,4.43,1.53,14.63,4.21,20.74-.87,2-1.67,3.63-3.22,4.95-4.62,1.27-1.35,2.24-2.56,2.98-3.58,.15-.2,.32-.37,.52-.5h0c-.04-.19-.06-.37-.09-.55-5.58,.77-8.55,2.67-11.45,4.52-2.84,1.81-5.62,3.59-10.39,4.43h0Zm30.6-14.71c-1.29,.04-2.39,.52-3.22,1.26-.62,.55-1.08,1.24-1.35,1.99-.26,.72-.33,1.51-.18,2.29,.24,1.21,1.08,2.41,2.68,3.33,1.75,1,3.46,1.18,4.95,.82,.95-.23,1.84-.68,2.61-1.28,.78-.6,1.42-1.35,1.88-2.15,.68-1.18,.96-2.47,.69-3.6-.38-1.6-1.03-2.37-1.71-2.53-.28-.06-.58-.04-.89,.06-.38,.12-.76,.35-1.11,.67-1.17,1.05-1.92,2.94-1.37,5.14,.26,1.07-.39,2.15-1.46,2.41-1.07,.26-2.15-.39-2.41-1.46-.66-2.65-.18-5.08,.89-6.96h0Zm28.13-77.7c7.03,.09,12.76-2.16,16.78-5.66,2.7-2.36,4.63-5.29,5.65-8.46,1.02-3.15,1.14-6.53,.24-9.82-1.29-4.74-4.72-9.31-10.66-12.78-9.56-5.57-22.91,.96-33.93,6.35-3.35,1.64-6.51,3.18-9.37,4.29,3.76,.86,7.18,1.58,10.07,1.93,1.09,.13,1.88,1.12,1.75,2.22-.13,1.1-1.12,1.88-2.22,1.75-4.15-.51-9.15-1.68-14.67-2.98-7.74-1.82-16.54-3.9-25.22-4.62-2.04-.17-3.96-.21-5.74-.11-5.79,.31-10.39,1.96-13.62,4.82-3.17,2.81-5.07,6.86-5.5,12-.11,1.3-.13,2.64-.05,4.03,.08,1.43,.39,2.72,.88,3.87,1.94,4.52,6.83,7.17,11.72,8.67,4.88,1.5,9.71,1.84,11.85,1.77-.02-.98-.02-1.84-.01-2.59,.01-1.01,.06-1.84,.15-2.49,.11-.79,.27-1.38,.72-2.11,.37-.6,.9-1.2,1.78-2.07,2.31-2.26,6.5-5.47,13.19-7.66,4.54-1.49,10.26-2.51,17.36-2.45,25,.22,28.66,9.43,28.67,9.46,.12,.29,.17,.58,.16,.88l.02,1.77h0Zm-3.83,14.85l-.17-16.22c-.79-1.29-5.23-6.58-24.88-6.75-6.61-.06-11.9,.89-16.1,2.26-5.96,1.95-9.62,4.75-11.63,6.71-.64,.63-1,1.02-1.17,1.3-.09,.15-.13,.33-.17,.6-.07,.52-.11,1.17-.12,1.97-.01,.88,0,1.95,.03,3.21l.24,12.23c7.59-6.02,17.82-9.98,29.06-10.51,.94-.04,1.8-.07,2.58-.07,8.31,0,15.98,1.93,22.34,5.27h0Zm-5.63,53.72c-5.68,2.82-12.26,4.58-19.29,4.92-.73,.03-1.52,.05-2.39,.05-6.6,0-12.75-1.31-18.04-3.63,1.06-.04,2.11-.12,3.16-.26,4.93-.66,9.66-2.49,13.12-5.35,1.51-1.24,2.78-2.67,3.74-4.27,.81,1.28,1.84,2.42,3.04,3.43,3.27,2.76,7.83,4.43,12.66,4.94,1.32,.14,2.66,.2,4.01,.17Z"/><path class="cls-11" d="M76.26,88.07c.55-.75,1.16-1.43,1.82-2.02,2.07-1.85,4.63-2.85,7.47-2.87,2.71-.02,5.67,.86,8.68,2.76,2.09,1.32,4.23,3.14,6.35,5.51,6.43,7.19,13.14-.22,14.25-1.56,.04-.18,.08-.36,.12-.54-.06-.44,.03-.86,.22-1.23,.19-1.2,.28-2.41,.28-3.64,0-.45,0-.82-.02-1.11-.36-7.57-4.4-14.25-10.76-19.07-.52-.39-1.05-.77-1.6-1.14-.32-.11-.6-.29-.83-.54-6.21-3.9-14.16-6.2-22.9-6.2-.87,0-1.67,.02-2.39,.05-10.77,.51-20.5,4.39-27.52,10.25-6.9,5.75-11.16,13.41-11.16,21.61,0,.45,0,.82,.02,1.12,.07,1.44,.27,2.85,.6,4.22,2.41,2.16,7.82,5.61,13.1-.65,2.27-2.69,4.59-4.77,6.86-6.26,2.92-1.92,5.78-2.88,8.41-2.97,2.78-.09,5.27,.77,7.31,2.49,.61,.52,1.18,1.12,1.71,1.8h0Zm16.73-20.61c-1.52-.55-3.01-.78-4.35-.66-1.16,.1-2.17,.47-2.94,1.12-.84,.71-2.1,.61-2.81-.23-.71-.84-.61-2.1,.23-2.81,1.43-1.21,3.21-1.88,5.17-2.05,1.9-.16,3.98,.15,6.05,.9,1.03,.37,1.57,1.52,1.19,2.55-.37,1.03-1.52,1.57-2.55,1.19h0Zm-27.06-.08c-.52,.97-1.73,1.33-2.7,.81-.82-.44-1.81-.54-2.79-.38-1.15,.19-2.28,.72-3.17,1.48-.84,.71-2.1,.61-2.81-.23-.71-.84-.61-2.1,.23-2.81,1.43-1.21,3.24-2.07,5.11-2.37,1.81-.29,3.67-.08,5.32,.8,.97,.52,1.33,1.73,.81,2.7h0Zm22.24,10.58c-.58,.94-1.81,1.23-2.75,.66-.94-.58-1.23-1.81-.66-2.75,1.33-2.17,3.27-3.3,5.37-3.65,1.16-.19,2.36-.14,3.52,.13,1.14,.26,2.24,.71,3.21,1.31,2.17,1.33,3.84,3.44,4.25,5.89,.18,1.09-.55,2.11-1.64,2.29-1.09,.18-2.11-.55-2.29-1.64-.21-1.24-1.16-2.38-2.41-3.14-.63-.39-1.31-.67-2-.83-.67-.15-1.35-.19-1.99-.08-1.01,.17-1.96,.73-2.62,1.81h0Zm-19.66-2.09c.58,.94,.28,2.17-.66,2.75-.94,.58-2.17,.28-2.75-.66-.66-1.08-1.61-1.64-2.62-1.81-.64-.11-1.32-.07-1.99,.08-.69,.16-1.37,.44-2,.83-1.25,.77-2.2,1.9-2.41,3.14-.18,1.09-1.21,1.82-2.29,1.64-1.09-.18-1.82-1.21-1.64-2.29,.41-2.45,2.08-4.56,4.25-5.89,.98-.6,2.07-1.05,3.21-1.31,1.16-.26,2.36-.32,3.52-.13,2.1,.35,4.04,1.49,5.37,3.65Z"/><path class="cls-3" d="M80.71,89.03c-.12,2.4,.78,4.65,2.36,6.61,1.57,1.95,3.8,3.62,6.38,4.9,2.61,1.29,5.58,2.19,8.58,2.56,4.95,.61,10-.2,13.69-2.98,.18-.14,.4-.21,.62-.21,.8-1.19,1.41-2.52,1.8-3.99-3.92,2.86-10.22,5.21-16.52-1.83-1.85-2.07-3.71-3.65-5.5-4.79-2.35-1.48-4.57-2.17-6.55-2.15-1.84,.01-3.49,.66-4.84,1.86l-.02,.02Z"/><path class="cls-3" d="M70.08,94.9c1.11-1.59,1.78-3.35,1.87-5.24,0-.11,.03-.21,.06-.31l-.04-.03c-1.27-1.07-2.84-1.61-4.61-1.55-1.91,.06-4.06,.81-6.35,2.31-1.94,1.28-3.96,3.1-6,5.51-6.33,7.5-12.7,5.43-16.62,2.77,.3,1.22,.76,2.32,1.36,3.32,2.58,1.16,5.49,1.78,8.49,1.92,4.33,.21,8.83-.57,12.75-2.12,3.86-1.53,7.14-3.79,9.08-6.58Z"/><path class="cls-3" d="M71.72,96.04c-2.17,3.12-5.77,5.63-9.98,7.29-4.16,1.64-8.95,2.47-13.57,2.25-1.99-.1-3.96-.39-5.83-.89,1.23,1.05,2.66,1.88,4.23,2.52,3.71,1.5,8.15,1.91,12.4,1.34,4.22-.57,8.22-2.1,11.1-4.47,3.46-2.86,5.25-7.05,3.61-12.35-.35,1.54-1.02,2.98-1.95,4.32Z"/><path class="cls-3" d="M78.32,95.88c.09,3.09,1.47,5.57,3.63,7.39,2.64,2.23,6.43,3.59,10.51,4.02,4.15,.44,8.56-.07,12.36-1.59,.91-.36,1.78-.78,2.6-1.27-3.03,.88-6.36,1.05-9.64,.65-3.24-.4-6.44-1.36-9.26-2.76-2.85-1.41-5.32-3.27-7.08-5.45-1.25-1.55-2.13-3.26-2.54-5.08-.37,1.27-.56,2.46-.58,3.57,0,.18,0,.35,0,.52Z"/><path class="cls-11" d="M79.37,106.31c-1.2-1.01-2.22-2.16-3.04-3.43-.96,1.6-2.23,3.03-3.74,4.27-3.46,2.86-8.18,4.68-13.12,5.35-1.04,.14-2.1,.23-3.16,.26,5.29,2.32,11.44,3.63,18.04,3.63,.87,0,1.67-.02,2.39-.05,7.02-.33,13.61-2.1,19.29-4.92-1.35,.03-2.69-.03-4.01-.17-4.83-.52-9.39-2.18-12.66-4.94Z"/><path class="cls-7" d="M68.89,122.98c-4.25-.9-9.25-1.47-13.75-.68-3.58,.62-6.83,2.12-9.06,5.02-3.38,4.41-5.42,7.38-6.56,9.13,4.43,1.53,14.63,4.21,20.74-.87,2-1.67,3.63-3.22,4.95-4.62,1.27-1.35,2.24-2.56,2.98-3.58,.15-.2,.32-.37,.52-.5h0c-.04-.19-.06-.37-.09-.55-5.58,.77-8.55,2.67-11.45,4.52-2.84,1.81-5.62,3.59-10.39,4.43-.82,.14-1.59-.4-1.73-1.22-.14-.82,.4-1.59,1.22-1.73,4.21-.75,6.73-2.36,9.31-4,3.29-2.1,6.67-4.25,13.24-5.05,.02-.1,.05-.19,.08-.29Z"/><path class="cls-7" d="M81.72,121.41c-1.17,1.05-1.92,2.94-1.37,5.14,.26,1.07-.39,2.15-1.46,2.41-1.07,.26-2.15-.39-2.41-1.46-.66-2.65-.18-5.08,.89-6.96-1.29,.04-2.39,.52-3.22,1.26-.62,.55-1.08,1.24-1.35,1.99-.26,.72-.33,1.51-.18,2.29,.24,1.21,1.08,2.41,2.68,3.33,1.75,1,3.46,1.18,4.95,.82,.95-.23,1.84-.68,2.61-1.28,.78-.6,1.42-1.35,1.88-2.15,.68-1.18,.96-2.47,.69-3.6-.38-1.6-1.03-2.37-1.71-2.53-.28-.06-.58-.04-.89,.06-.38,.12-.76,.35-1.11,.67Z"/><path class="cls-7" d="M89.49,125.55c.94,.98,2.35,2.25,4.41,3.7,1.61,1.14,3.59,2.39,6.02,3.68,7.03,3.74,16.48-.98,20.5-3.38-1.46-1.48-4.06-3.97-8.29-7.61-2.65-2.28-5.96-3.11-9.41-3.08-3.95,.04-8.11,1.19-11.78,2.64,5.65-.34,8.78,.96,11.85,2.23,2.55,1.06,5.05,2.1,9.21,1.91,.82-.04,1.52,.6,1.56,1.43,.04,.82-.6,1.52-1.43,1.56-4.82,.22-7.63-.94-10.49-2.13-3-1.24-6.08-2.52-12.12-1.87-.02,.28-.05,.56-.09,.84,.03,.03,.06,.05,.08,.08Z"/><path class="cls-11" d="M117.89,75.46c.86,2.45,1.38,5.03,1.51,7.72,.02,.51,.04,.94,.04,1.3,0,.58-.02,1.15-.05,1.73,2.15-.92,4.78-2.62,5.06-5.57,.15-1.51-.14-2.78-.73-3.71-.35-.55-.79-.99-1.31-1.3-.53-.32-1.14-.52-1.81-.59-.83-.08-1.75,.05-2.7,.42Z"/><path class="cls-11" d="M34.26,88.34c0-3,.49-5.93,1.41-8.75-1.05-.46-2.06-.62-2.98-.54-.67,.07-1.28,.27-1.81,.59-.52,.31-.96,.75-1.31,1.3-.59,.94-.88,2.2-.73,3.71,.3,3.15,3.29,4.89,5.51,5.75-.02-.25-.04-.51-.05-.76-.02-.51-.04-.95-.04-1.3Z"/><path class="cls-10" d="M56.16,44.09v10.34c0,.83-.67,1.5-1.5,1.5s-1.5-.67-1.5-1.5v-10.34c0-.83,.67-1.5,1.5-1.5s1.5,.67,1.5,1.5h0Zm-8.46,18.92c7.59-6.02,17.82-9.98,29.06-10.51,.94-.04,1.8-.07,2.58-.07,8.31,0,15.98,1.93,22.34,5.27l-.17-16.22c-.79-1.29-5.23-6.58-24.88-6.75-6.61-.06-11.9,.89-16.1,2.26-5.96,1.95-9.62,4.75-11.63,6.71-.64,.63-1,1.02-1.17,1.3-.09,.15-.13,.33-.17,.6-.07,.52-.11,1.17-.12,1.97-.01,.88,0,1.95,.03,3.21l.24,12.23h0Zm17.62-13.17v-10.34c0-.83,.67-1.5,1.5-1.5s1.5,.67,1.5,1.5v10.34c0,.83-.67,1.5-1.5,1.5s-1.5-.67-1.5-1.5h0Zm14.39,.92c-.83,0-1.5-.67-1.5-1.5v-10.34c0-.83,.67-1.5,1.5-1.5s1.5,.67,1.5,1.5v10.34c0,.83-.67,1.5-1.5,1.5h0Zm11.61-9.61c0-.83,.67-1.5,1.5-1.5s1.5,.67,1.5,1.5v10.34c0,.83-.67,1.5-1.5,1.5s-1.5-.67-1.5-1.5v-10.34Z"/><path class="cls-10" d="M46.1,40.86c2.31-2.26,6.5-5.47,13.19-7.66,4.54-1.49,10.26-2.51,17.36-2.45,25,.22,28.66,9.43,28.67,9.46,.12,.29,.17,.58,.16,.88l.02,1.77c7.03,.09,12.76-2.16,16.78-5.66,2.7-2.36,4.63-5.29,5.65-8.46,1.02-3.15,1.14-6.53,.24-9.82-1.29-4.74-4.72-9.31-10.66-12.78-9.56-5.57-22.91,.96-33.93,6.35-3.35,1.64-6.51,3.18-9.37,4.29,3.76,.86,7.18,1.58,10.07,1.93,1.09,.13,1.88,1.12,1.75,2.22-.13,1.1-1.12,1.88-2.22,1.75-4.15-.51-9.15-1.68-14.67-2.98-7.74-1.82-16.54-3.9-25.22-4.62-2.04-.17-3.96-.21-5.74-.11-5.79,.31-10.39,1.96-13.62,4.82-3.17,2.81-5.07,6.86-5.5,12-.11,1.3-.13,2.64-.05,4.03,.08,1.43,.39,2.72,.88,3.87,1.94,4.52,6.83,7.17,11.72,8.67,4.88,1.5,9.71,1.84,11.85,1.77-.02-.98-.02-1.84-.01-2.59,.01-1.01,.06-1.84,.15-2.49,.11-.79,.27-1.38,.72-2.11,.37-.6,.9-1.2,1.78-2.07h0Zm-8.65,.73c.82,.11,1.7,.2,2.63,.28,1.23,.09,2.15,1.16,2.05,2.39-.09,1.23-1.16,2.15-2.39,2.06-8.81-1.55-20.74-7.67-16.53-18.08l.47,1.17c2.36,8.35,5.12,11.07,13.76,12.18h0Zm69.57-6.54c.77-.05,1.58-.15,2.4-.3,6.34-1.17,13.66-5.4,14.58-11.99,.74-5.24-.31-.34,.95-5.57,3.17,13.11-5.57,20.66-18.01,22.31-1.23-.02-2.21-1.04-2.19-2.27,.02-1.23,1.04-2.21,2.27-2.19Z"/><path class="cls-6" d="M34.26,88.34c0-1.69,.15-3.35,.45-4.99-.78-.63-1.81-1.14-2.92-.9-1.5,.33-1.35,1.7-1.08,2.6,.58,1.99,3.55,3.95,3.55,3.28Z"/><path class="cls-6" d="M122.6,81.18c.3-2.02-1.28-2.85-3.56-1.35,.13,.78,.61,4.51,.56,5.29,1.64-.99,2.7-1.93,3-3.95Z"/><path class="cls-4" d="M34.96,84.69c-.72-2.14-2.07-2.23-3.99-1.84-.24-.86,3.49-2.53,5.42,1.33,.14,.4-.07,.83-.46,.97-.4,.14-.83-.07-.97-.46Z"/><path class="cls-4" d="M117.42,80.69c2.11-2.13,5.3-3.03,5.31,.15-1.98-1.85-2.35-1.5-4.1,.78-.26,.33-.73,.4-1.07,.14-.33-.26-.4-.73-.14-1.07Z"/><path class="cls-5" d="M120.14,13.19c.63,10.57-12.68,19.66-20.08,18.18-7.4-1.48-11.63-4.02-29.6-3.17-17.97,.85-17.55,6.55-30.02,6.55-8.74,0-17.27-5.81-16.87-14.02-2.58,2.74-4.12,6.45-4.5,11.04-.11,1.3-.13,2.64-.05,4.03,.08,1.43,.39,2.72,.88,3.87,1.94,4.52,6.83,7.17,11.72,8.67,4.88,1.5,9.71,1.84,11.85,1.77-.02-.98-.02-1.84-.01-2.59,.01-1.01,.06-1.84,.15-2.49,.11-.79,.27-1.38,.72-2.11,.37-.6,.9-1.2,1.78-2.07,2.31-2.26,6.5-5.47,13.19-7.66,4.54-1.49,10.26-2.51,17.36-2.45,25,.22,28.66,9.43,28.67,9.46,.12,.29,.17,.58,.16,.88l.02,1.77c7.03,.09,12.76-2.16,16.78-5.66,2.7-2.36,4.63-5.29,5.65-8.46,1.02-3.15,1.14-6.53,.24-9.82-1.13-4.13-3.88-8.14-8.51-11.4,.18,1.61,.35,3.49,.48,5.68h0ZM37.45,41.59c.82,.11,1.7,.2,2.63,.28,1.23,.09,2.15,1.16,2.05,2.39-.09,1.23-1.16,2.15-2.39,2.06-8.81-1.55-20.74-7.67-16.53-18.08l.47,1.17c2.36,8.35,5.12,11.07,13.76,12.18h0Zm69.57-6.54c.77-.05,1.58-.15,2.4-.3,6.34-1.17,13.66-5.4,14.58-11.99,.74-5.24-.31-.34,.95-5.57,3.17,13.11-5.57,20.66-18.01,22.31-1.23-.02-2.21-1.04-2.19-2.27,.02-1.23,1.04-2.21,2.27-2.19Z"/><path class="cls-1" d="M80.73,80.8c3.46,4.96-.75,7.58-4.67,7.69-3.34,.1-6.41-1.86-4.82-3.06,.22-.16,.4-.93,.6-.91,1.3,2.24,10.39,1.93,6.97-2.09-.45-.53-.39-1.33,.14-1.78,.53-.45,1.33-.39,1.78,.14Z"/><path class="cls-10" d="M80.33,56.48c.2,0,.41-.02,.63-.02-.54-.02-1.08-.03-1.62-.03-.87,0-1.67,.02-2.39,.05-10.77,.51-20.5,4.39-27.52,10.25-6.9,5.75-11.16,13.41-11.16,21.61,0,.45,0,.82,.02,1.12,.07,1.44,.27,2.85,.6,4.22,.91,.81,2.24,1.81,3.83,2.4,.17,.06-2.26-8.1-.58-14.71,4.14-16.25,22.3-24.12,38.21-24.88Z"/><path class="cls-8" d="M97.64,38.37c-.08,3.95-.13,7.42-.15,9.99-.03,3.59-.73,4.01-3.22,3.49-.16,.65-.75,1.14-1.45,1.14-.83,0-1.5-.67-1.5-1.5v-.33c-2.7-.59-6.19-1.12-10.28-1.2-.25,.48-.75,.81-1.33,.81s-1.07-.32-1.33-.8c-4.86,.13-10.42,.9-16.43,2.84-2.14,.69-4.1,1.44-5.92,2.22-.23,.53-.76,.9-1.38,.9-.16,0-.31-.03-.46-.07-2.5,1.19-4.68,2.44-6.57,3.7l.07,3.45c7.59-6.02,17.82-9.98,29.06-10.51,.94-.04,1.8-.07,2.58-.07,8.31,0,15.98,1.93,22.34,5.27l-.17-16.22c-.34-.55-1.33-1.81-3.86-3.11Z"/><path class="cls-9" d="M57.17,130.83c-2.84,1.81-5.62,3.59-10.39,4.43-.67,.12-1.32-.23-1.6-.82-1.76,.51-3.59,.98-5.25,1.39-.14,.22-.27,.42-.4,.6,4.43,1.53,14.63,4.21,20.74-.87,2-1.67,3.63-3.22,4.95-4.62,1.27-1.35,2.24-2.56,2.98-3.58,.15-.2,.32-.37,.52-.5h0c-.04-.19-.06-.37-.09-.55-5.58,.77-8.55,2.67-11.45,4.52Z"/><path class="cls-9" d="M119.63,128.77c-1.84-.2-4.09-.44-6.41-.71-.26,.33-.65,.54-1.1,.56-4.82,.22-7.63-.94-10.49-2.13-3-1.24-6.08-2.52-12.12-1.87-.02,.28-.05,.56-.09,.84,.03,.03,.06,.05,.08,.08,.94,.98,2.35,2.25,4.41,3.7,1.61,1.14,3.59,2.39,6.02,3.68,7.03,3.74,16.48-.98,20.5-3.38-.23-.24-.49-.5-.79-.78Z"/><path class="cls-2" d="M58.95,108.55c4.22-.57,8.22-2.1,11.1-4.47,3.46-2.86,5.25-7.05,3.61-12.35-.35,1.54-1.02,2.98-1.95,4.32-2.17,3.12-5.77,5.63-9.98,7.29-4.16,1.64-8.95,2.47-13.57,2.25-1.99-.1-3.96-.39-5.83-.89,1.23,1.05,2.66,1.88,4.23,2.52,3.71,1.5,8.15,1.91,12.4,1.34Z"/><path class="cls-2" d="M78.32,95.88c.09,3.09,1.47,5.57,3.63,7.39,2.64,2.23,6.43,3.59,10.51,4.02,4.15,.44,8.56-.07,12.36-1.59,.91-.36,1.78-.78,2.6-1.27-3.03,.88-6.36,1.05-9.64,.65-3.24-.4-6.44-1.36-9.26-2.76-2.85-1.41-5.32-3.27-7.08-5.45-1.25-1.55-2.13-3.26-2.54-5.08-.37,1.27-.56,2.46-.58,3.57,0,.18,0,.35,0,.52Z"/></g></g></g></g></svg>